<svg xmlns="http://www.w3.org/2000/svg" width="9.149" height="9.149" viewBox="0 0 9.149 9.149"><defs><style>.a{fill:#0166ff;}</style></defs><g transform="translate(-54.13 -48)"><path class="a" d="M103.384,55.682a.341.341,0,0,1-.254-.114l-3.193-3.541a.341.341,0,0,1,.254-.569h1.279V48.341a.341.341,0,0,1,.341-.341h3.148a.341.341,0,0,1,.341.341v3.115h1.278a.341.341,0,0,1,.254.569l-3.194,3.543A.341.341,0,0,1,103.384,55.682Zm-2.426-3.542,2.426,2.691,2.426-2.691h-.852a.341.341,0,0,1-.341-.341V48.683h-2.465V51.8a.341.341,0,0,1-.341.341Z" transform="translate(-44.679 0)"/><path class="a" d="M61.793,334.236H55.616a1.488,1.488,0,0,1-1.486-1.486v-.869a.341.341,0,0,1,.683,0v.869a.8.8,0,0,0,.8.8h6.177a.8.8,0,0,0,.8-.8v-.869a.341.341,0,0,1,.683,0v.869A1.488,1.488,0,0,1,61.793,334.236Z" transform="translate(0 -277.087)"/></g></svg>